<svg width="184" height="185" viewBox="0 0 184 185" fill="none" xmlns="http://www.w3.org/2000/svg">
<path d="M0.641602 24.7016C0.641602 11.2424 11.5524 0.331543 25.0116 0.331543H159.63C173.089 0.331543 184 11.2424 184 24.7015V159.664C184 173.124 173.089 184.034 159.63 184.034H25.0116C11.5524 184.034 0.641602 173.124 0.641602 159.664V24.7016Z" fill="#368F8B"/>
<path d="M119.736 126.413C117.606 127.43 113.532 128.314 110.493 128.39C101.32 128.635 99.5396 121.946 99.4657 117.098V81.43H122.474V64.0815H99.5453V34.895H82.766C82.4897 34.895 82.0075 35.1368 81.9393 35.7504C80.9576 44.6829 76.7791 60.3608 59.3955 66.6297V81.4293H70.9918V118.864C70.9918 131.682 80.4467 149.892 105.407 149.463C113.828 149.319 123.181 145.794 125.247 142.751L119.736 126.413Z" fill="white"/>
</svg>
